<svg width="191" height="99" viewBox="0 0 191 99" fill="none" xmlns="http://www.w3.org/2000/svg">
<path d="M17.6187 49.5019C17.6187 67.1088 31.8924 81.382 49.4999 81.382C66.021 81.382 79.6049 68.8183 81.2181 52.7244H66.6069C65.0902 60.7899 57.9959 66.9048 49.4999 66.9048C39.9026 66.9048 32.0963 59.0989 32.0963 49.5019C32.0963 39.9085 39.9026 32.1026 49.4999 32.1026C53.442 32.1026 57.08 33.4228 60.0022 35.6366L68.7467 24.089C63.3991 20.0321 56.7314 17.6218 49.5037 17.6218C31.8924 17.6218 17.6187 31.8949 17.6187 49.5019Z" fill="#56D160"/>
<path d="M81.2181 46.2756H66.6069C66.11 43.6354 65.0086 41.2064 63.4622 39.1261L58.2927 42.9642C59.6537 44.7886 60.4584 47.0507 60.4584 49.4944C60.4584 55.5389 55.541 60.4561 49.4963 60.4561C43.4553 60.4561 38.5342 55.5426 38.5342 49.4944C38.5342 43.4536 43.4516 38.5402 49.4963 38.5402C51.9772 38.5402 54.269 39.3708 56.1084 40.7651L49.4963 49.4981L79.9461 19.0494L84.5075 14.4883C75.3959 5.38072 62.8911 0 49.5 0C22.206 0 0 22.2052 0 49.4981C0 76.7948 22.206 99 49.5 99C75.7111 99 97.2311 78.5192 98.8999 52.7206H99V46.2756H81.2181ZM49.5 92.555C25.7587 92.555 6.44524 73.2423 6.44524 49.4981C6.44524 25.7577 25.7587 6.44499 49.5 6.44499C59.0937 6.44499 68.1645 9.62299 75.496 15.1743L68.7467 24.089L60.0023 35.6329C57.08 33.4153 53.4421 32.0989 49.5 32.0989C39.9026 32.0989 32.0964 39.9048 32.0964 49.4981C32.0964 59.0952 39.9026 66.9011 49.5 66.9011C57.996 66.9011 65.0902 60.7824 66.6069 52.7206H81.2181H92.4361C90.7821 74.9629 72.1585 92.555 49.5 92.555Z" fill="#1F2736"/>
<path d="M81.2922 25.8838L63.4658 39.1298C65.0122 41.2064 66.1136 43.6353 66.6106 46.2793H81.2217C80.7359 41.4549 79.1747 36.9456 76.779 33L81.2922 25.8838Z" fill="#00BD6A"/>
<path d="M114.2 44C111.88 44 110.093 43.44 108.84 42.32C107.613 41.1733 107 39.4667 107 37.2V22.8C107 20.5333 107.613 18.84 108.84 17.72C110.093 16.5733 111.88 16 114.2 16H119.6V19.04H113.8C112.813 19.04 112.013 19.3333 111.4 19.92C110.787 20.5067 110.48 21.2133 110.48 22.04V37.96C110.48 38.7867 110.787 39.4933 111.4 40.08C112.013 40.6667 112.813 40.96 113.8 40.96H117.48V32.28H114.12V29.28H120.8V44H114.2ZM126.009 24H129.209V25.08C130.089 24.36 131.156 24 132.409 24H135.329V27.2H132.009C131.129 27.2 130.476 27.4933 130.049 28.08C129.623 28.6667 129.409 29.24 129.409 29.8V44H126.009V24ZM144.344 44C141.997 44 140.277 43.5067 139.184 42.52C138.09 41.5067 137.544 39.8667 137.544 37.6V30.4C137.544 28.1067 138.037 26.4667 139.024 25.48C140.01 24.4933 141.65 24 143.944 24H145.024C146.917 24 148.344 24.5333 149.304 25.6C150.29 26.64 150.784 28.1733 150.784 30.2V35.4H140.944V38.4C140.944 39.2267 141.197 39.8667 141.704 40.32C142.21 40.7733 142.957 41 143.944 41H149.504V44H144.344ZM147.464 32.4V29.4C147.464 28.7067 147.237 28.1333 146.784 27.68C146.33 27.2267 145.757 27 145.064 27H143.544C142.584 27 141.904 27.2267 141.504 27.68C141.13 28.1067 140.944 28.7467 140.944 29.6V32.4H147.464ZM162.177 44C159.83 44 158.11 43.5067 157.017 42.52C155.923 41.5067 155.377 39.8667 155.377 37.6V30.4C155.377 28.1067 155.87 26.4667 156.857 25.48C157.843 24.4933 159.483 24 161.777 24H162.857C164.75 24 166.177 24.5333 167.137 25.6C168.123 26.64 168.617 28.1733 168.617 30.2V35.4H158.777V38.4C158.777 39.2267 159.03 39.8667 159.537 40.32C160.043 40.7733 160.79 41 161.777 41H167.337V44H162.177ZM165.297 32.4V29.4C165.297 28.7067 165.07 28.1333 164.617 27.68C164.163 27.2267 163.59 27 162.897 27H161.377C160.417 27 159.737 27.2267 159.337 27.68C158.963 28.1067 158.777 28.7467 158.777 29.6V32.4H165.297ZM173.609 24H176.809V24.96C177.636 24.32 178.703 24 180.009 24H181.049C183.209 24 184.809 24.5067 185.849 25.52C186.916 26.5333 187.449 28.16 187.449 30.4V44H184.049V29.6C184.049 28.8 183.809 28.1733 183.329 27.72C182.876 27.24 182.249 27 181.449 27H179.609C178.729 27 178.076 27.24 177.649 27.72C177.223 28.1733 177.009 28.6667 177.009 29.2V44H173.609V24Z" fill="#56D160"/>
<path d="M122.76 69.2C122.76 71.4667 122.133 73.1733 120.88 74.32C119.653 75.44 117.88 76 115.56 76H114.2C111.88 76 110.093 75.44 108.84 74.32C107.613 73.1733 107 71.4667 107 69.2V54.8C107 52.5333 107.613 50.84 108.84 49.72C110.093 48.5733 111.88 48 114.2 48H115.56C117.88 48 119.653 48.5733 120.88 49.72C122.133 50.84 122.76 52.5333 122.76 54.8V69.2ZM119.28 54.04C119.28 53.2133 118.973 52.5067 118.36 51.92C117.747 51.3333 116.947 51.04 115.96 51.04H113.8C112.813 51.04 112.013 51.3333 111.4 51.92C110.787 52.5067 110.48 53.2133 110.48 54.04V69.96C110.48 70.7867 110.787 71.4933 111.4 72.08C112.013 72.6667 112.813 72.96 113.8 72.96H115.96C116.947 72.96 117.747 72.6667 118.36 72.08C118.973 71.4933 119.28 70.7867 119.28 69.96V54.04ZM138.118 75.08C137.238 75.6933 136.171 76 134.918 76H134.358C132.198 76 130.584 75.4933 129.518 74.48C128.478 73.4667 127.958 71.84 127.958 69.6V56H131.358V70.4C131.358 71.2 131.584 71.84 132.038 72.32C132.518 72.7733 133.158 73 133.958 73H135.318C136.171 73 136.798 72.7867 137.198 72.36C137.624 71.9333 137.864 71.4533 137.918 70.92V56H141.318V76H138.118V75.08ZM151.328 76C149.968 76 148.928 75.56 148.208 74.68C147.488 73.8 147.128 72.64 147.128 71.2V59H144.528V56H147.128V51.2H150.528V56H155.168V59H150.528V71.4C150.528 71.9867 150.675 72.4 150.968 72.64C151.261 72.88 151.715 73 152.328 73H155.168V76H151.328Z" fill="black"/>
</svg>
