<svg width="134" height="71" viewBox="0 0 134 71" fill="none" xmlns="http://www.w3.org/2000/svg">
<path d="M12.5625 35.5C12.5625 48.1571 22.7661 58.4177 35.353 58.4177C47.1631 58.4177 56.8736 49.3861 58.0268 37.8166H47.5819C46.4977 43.6146 41.4264 48.0105 35.353 48.0105C28.4922 48.0105 22.9119 42.399 22.9119 35.5C22.9119 28.6036 28.4922 22.9922 35.353 22.9922C38.171 22.9922 40.7716 23.9412 42.8605 25.5326L49.1115 17.2314C45.2888 14.315 40.5224 12.5823 35.3556 12.5823C22.7661 12.5823 12.5625 22.8429 12.5625 35.5Z" fill="white"/>
<path d="M47.6935 33.1876C47.3377 31.294 46.5491 29.5521 45.4418 28.0601L41.7401 30.8127C42.7147 32.1211 43.2909 33.7434 43.2909 35.496C43.2909 39.831 39.7698 43.3574 35.4415 43.3574C31.1159 43.3574 27.5922 39.8336 27.5922 35.496C27.5922 31.1637 31.1133 27.6399 35.4415 27.6399C37.218 27.6399 38.859 28.2356 40.1761 29.2356L35.4415 35.4987L60.5111 10.3906C53.9868 3.8589 45.0328 0 35.4442 0C15.9005 0 0 15.9249 0 35.4987C0 55.0751 15.9005 71 35.4442 71C54.2125 71 69.6218 56.3117 70.8167 37.8098H70.8884V33.1876H47.6935ZM35.4442 66.3778C18.4444 66.3778 4.61507 52.5273 4.61507 35.4987C4.61507 18.4727 18.4444 4.62217 35.4442 4.62217C42.3137 4.62217 48.8088 6.90134 54.0585 10.8826L42.9643 25.5549C40.8718 23.9645 38.2669 23.0204 35.4442 23.0204C28.572 23.0204 22.9824 28.6186 22.9824 35.4987C22.9824 42.3814 28.572 47.9796 35.4442 47.9796C41.5277 47.9796 46.6075 43.5915 47.6935 37.8098H66.1883C65.004 53.7613 51.6687 66.3778 35.4442 66.3778Z" fill="#1F2736"/>
<path d="M58.3259 18.5738L45.1652 27.9128C46.3068 29.3769 47.12 31.0894 47.4869 32.9536H58.2739C57.9152 29.5521 56.7626 26.3729 54.994 23.5911L58.3259 18.5738Z" fill="#00BD6A"/>
<path d="M81.7111 31.5156C80.055 31.5156 78.7796 31.113 77.8849 30.3077C77.0092 29.4833 76.5714 28.2562 76.5714 26.6265V16.2731C76.5714 14.6434 77.0092 13.4259 77.8849 12.6206C78.7796 11.7962 80.055 11.384 81.7111 11.384H85.5659V13.5697H81.4256C80.7213 13.5697 80.1502 13.7806 79.7123 14.2024C79.2745 14.6242 79.0556 15.1323 79.0556 15.7266V27.1729C79.0556 27.7673 79.2745 28.2754 79.7123 28.6972C80.1502 29.119 80.7213 29.3299 81.4256 29.3299H84.0525V23.0891H81.654V20.9321H86.4225V31.5156H81.7111Z" fill="white"/>
<path d="M90.1412 17.1359H92.4255V17.9124C93.0537 17.3947 93.8151 17.1359 94.7098 17.1359H96.7943V19.4366H94.4243C93.7961 19.4366 93.3297 19.6475 93.0252 20.0693C92.7206 20.4911 92.5683 20.9034 92.5683 21.306V31.5156H90.1412V17.1359Z" fill="white"/>
<path d="M103.229 31.5156C101.554 31.5156 100.326 31.1609 99.5457 30.4515C98.7652 29.7229 98.375 28.5438 98.375 26.9141V21.7374C98.375 20.0885 98.7272 18.9094 99.4315 18.2C100.136 17.4906 101.307 17.1359 102.944 17.1359H103.715C105.066 17.1359 106.085 17.5193 106.77 18.2862C107.474 19.034 107.826 20.1364 107.826 21.5936V25.3323H100.802V27.4893C100.802 28.0836 100.983 28.5438 101.345 28.8697C101.706 29.1957 102.239 29.3587 102.944 29.3587H106.913V31.5156H103.229ZM105.456 23.1754V21.0184C105.456 20.5199 105.295 20.1077 104.971 19.7817C104.647 19.4558 104.238 19.2928 103.743 19.2928H102.658C101.973 19.2928 101.487 19.4558 101.202 19.7817C100.935 20.0885 100.802 20.5487 100.802 21.1622V23.1754H105.456Z" fill="white"/>
<path d="M115.959 31.5156C114.284 31.5156 113.056 31.1609 112.276 30.4515C111.495 29.7229 111.105 28.5438 111.105 26.9141V21.7374C111.105 20.0885 111.457 18.9094 112.161 18.2C112.866 17.4906 114.036 17.1359 115.674 17.1359H116.444C117.796 17.1359 118.814 17.5193 119.5 18.2862C120.204 19.034 120.556 20.1364 120.556 21.5936V25.3323H113.532V27.4893C113.532 28.0836 113.713 28.5438 114.075 28.8697C114.436 29.1957 114.969 29.3587 115.674 29.3587H119.643V31.5156H115.959ZM118.186 23.1754V21.0184C118.186 20.5199 118.024 20.1077 117.701 19.7817C117.377 19.4558 116.968 19.2928 116.473 19.2928H115.388C114.703 19.2928 114.217 19.4558 113.932 19.7817C113.665 20.0885 113.532 20.5487 113.532 21.1622V23.1754H118.186Z" fill="white"/>
<path d="M124.12 17.1359H126.405V17.8261C126.995 17.3659 127.756 17.1359 128.689 17.1359H129.431C130.973 17.1359 132.115 17.5002 132.858 18.2287C133.619 18.9573 134 20.1269 134 21.7374V31.5156H131.573V21.1622C131.573 20.587 131.402 20.1364 131.059 19.8105C130.735 19.4654 130.288 19.2928 129.717 19.2928H128.403C127.775 19.2928 127.309 19.4654 127.004 19.8105C126.7 20.1364 126.547 20.4911 126.547 20.8746V31.5156H124.12V17.1359Z" fill="white"/>
<path d="M87.8217 49.6341C87.8217 51.2638 87.3743 52.4909 86.4796 53.3153C85.604 54.1206 84.3381 54.5232 82.682 54.5232H81.7111C80.055 54.5232 78.7796 54.1206 77.8849 53.3153C77.0092 52.4909 76.5714 51.2638 76.5714 49.6341V39.2807C76.5714 37.651 77.0092 36.4335 77.8849 35.6282C78.7796 34.8038 80.055 34.3916 81.7111 34.3916H82.682C84.3381 34.3916 85.604 34.8038 86.4796 35.6282C87.3743 36.4335 87.8217 37.651 87.8217 39.2807V49.6341ZM85.3375 38.7342C85.3375 38.1399 85.1186 37.6318 84.6807 37.21C84.2429 36.7882 83.6718 36.5773 82.9675 36.5773H81.4256C80.7213 36.5773 80.1502 36.7882 79.7123 37.21C79.2745 37.6318 79.0556 38.1399 79.0556 38.7342V50.1805C79.0556 50.7749 79.2745 51.283 79.7123 51.7048C80.1502 52.1266 80.7213 52.3375 81.4256 52.3375H82.9675C83.6718 52.3375 84.2429 52.1266 84.6807 51.7048C85.1186 51.283 85.3375 50.7749 85.3375 50.1805V38.7342Z" fill="white"/>
<path d="M98.7848 53.8617C98.1566 54.3027 97.3952 54.5232 96.5005 54.5232H96.1007C94.5588 54.5232 93.4071 54.1589 92.6457 53.4303C91.9033 52.7018 91.5321 51.5322 91.5321 49.9217V40.1435H93.9592V50.4969C93.9592 51.0721 94.121 51.5322 94.4446 51.8773C94.7872 52.2033 95.2441 52.3662 95.8152 52.3662H96.786C97.3952 52.3662 97.8425 52.2129 98.1281 51.9061C98.4326 51.5993 98.604 51.2542 98.642 50.8707V40.1435H101.069V54.5232H98.7848V53.8617Z" fill="white"/>
<path d="M108.215 54.5232C107.244 54.5232 106.502 54.2068 105.988 53.5741C105.474 52.9414 105.217 52.1074 105.217 51.0721V42.3004H103.361V40.1435H105.217V36.6923H107.644V40.1435H110.956V42.3004H107.644V51.2159C107.644 51.6377 107.749 51.9348 107.958 52.1074C108.167 52.28 108.491 52.3662 108.929 52.3662H110.956V54.5232H108.215Z" fill="white"/>
</svg>
