<svg width="28" height="28" viewBox="0 0 28 28" fill="none" xmlns="http://www.w3.org/2000/svg">
<path d="M24.2979 2.70196L6.21825 0.482165C5.35854 0.379404 4.49308 0.620949 3.81083 1.15407C3.12859 1.68718 2.68497 2.46857 2.57683 3.32763L0.357038 21.4067C0.25281 22.2667 0.493802 23.1329 1.02719 23.8155C1.56057 24.4981 2.34283 24.9414 3.2025 25.0482L21.2811 27.2679C22.1404 27.3691 23.005 27.1269 23.6867 26.594C24.3685 26.0612 24.8124 25.2808 24.9219 24.4225L27.1423 6.34392C27.2467 5.48408 27.006 4.61736 26.4728 3.93475C25.9396 3.25214 25.1575 2.80881 24.2979 2.70196Z" fill="#FFCA28"/>
</svg>
