<svg width="30" height="19" viewBox="0 0 30 19" fill="none" xmlns="http://www.w3.org/2000/svg">
<path d="M28.5327 0.699463C28.5327 1.35196 28.2009 1.93921 27.6952 2.29303C27.5321 2.40159 27.3526 2.48878 27.1619 2.54896C26.9881 2.60353 26.8031 2.63053 26.6017 2.63053C25.5357 2.63053 24.6712 1.76596 24.6712 0.700025C24.6712 1.76596 23.8066 2.63053 22.7351 2.63053C21.6641 2.63053 20.7989 1.76596 20.7989 0.700025C20.7989 1.76596 19.9344 2.63053 18.8684 2.63053C17.7974 2.63053 16.9323 1.76596 16.9323 0.700025C16.9323 1.76596 16.0677 2.63053 15.0018 2.63053C13.9302 2.63053 13.0657 1.76596 13.0657 0.700025C13.0657 1.76596 12.2011 2.63053 11.1352 2.63053C10.0636 2.63053 9.19905 1.76596 9.19905 0.700025C9.19905 1.76596 8.33449 2.63053 7.26293 2.63053C6.20262 2.63053 5.33805 1.76596 5.33805 0.700025C5.33805 1.76596 4.46787 2.63053 3.40193 2.63053C3.20055 2.63053 3.01043 2.60296 2.83662 2.54896C2.64649 2.48934 2.46649 2.40215 2.30337 2.29303C1.79768 1.93978 1.4658 1.35196 1.4658 0.699463C1.4658 1.48809 0.987117 2.16759 0.307617 2.46684V18.6725H19.5693V8.65546H24.9856V18.6725H29.6898V2.46684C29.0114 2.16759 28.5327 1.48809 28.5327 0.699463ZM5.79593 3.18459H10.8534V5.9414H5.79593V3.18459ZM14.4697 16.0732H5.43143V15.6271H5.96412V8.65546H13.9426V15.6271H14.4702V16.0732H14.4697ZM24.2043 5.94196H19.1525V3.18515H24.2043V5.94196Z" fill="#EDEDED"/>
</svg>
