<svg width="36" height="36" viewBox="0 0 36 36" fill="none" xmlns="http://www.w3.org/2000/svg">
<path d="M26.2979 5.70196L8.21825 3.48217C7.35854 3.3794 6.49308 3.62095 5.81083 4.15407C5.12859 4.68718 4.68497 5.46857 4.57683 6.32763L2.35704 24.4067C2.25281 25.2667 2.4938 26.1329 3.02719 26.8155C3.56057 27.4981 4.34283 27.9414 5.2025 28.0482L23.2811 30.2679C24.1404 30.3691 25.005 30.1269 25.6867 29.594C26.3685 29.0612 26.8124 28.2808 26.9219 27.4225L29.1423 9.34392C29.2467 8.48408 29.006 7.61736 28.4728 6.93475C27.9396 6.25214 27.1575 5.80881 26.2979 5.70196Z" fill="#FFCA28"/>
<path d="M33.75 11.25V24.75C33.7478 25.0483 33.631 25.3342 33.4237 25.5487L26.6737 32.2987C26.4592 32.506 26.1733 32.6228 25.875 32.625H12.375C11.4807 32.6224 10.6238 32.266 9.9914 31.6336C9.35903 31.0012 9.00261 30.1443 9 29.25V11.25C9.00261 10.3557 9.35903 9.49877 9.9914 8.8664C10.6238 8.23403 11.4807 7.87761 12.375 7.875H30.375C31.2693 7.87761 32.1262 8.23403 32.7586 8.8664C33.391 9.49877 33.7474 10.3557 33.75 11.25Z" fill="#FAFAFA"/>
<path d="M33.75 22.5V24.75C33.7478 25.0483 33.631 25.3342 33.4237 25.5487L26.6737 32.2987C26.4592 32.506 26.1733 32.6228 25.875 32.625H23.625V25.875C23.6276 24.9807 23.984 24.1238 24.6164 23.4914C25.2488 22.859 26.1057 22.5026 27 22.5H33.75Z" fill="#E0E0E0"/>
<path d="M16.3412 20.323L14.7427 21.9226L13.3989 26.5389C13.3458 26.7212 13.3397 26.914 13.3812 27.0992C13.4227 27.2845 13.5104 27.4563 13.6361 27.5985C13.7619 27.7408 13.9216 27.8489 14.1003 27.9128C14.2791 27.9767 14.4712 27.9943 14.6586 27.964L19.8414 27.1263L21.4927 25.475L16.3412 20.323Z" fill="#FFB300"/>
<path d="M28.7393 15.0466L26.7707 13.0774C26.348 12.657 25.776 12.421 25.1798 12.4209C24.5836 12.4208 24.0116 12.6568 23.5888 13.0771L14.7432 21.9222L19.8405 27.1267L19.8416 27.1261L28.7391 18.228C29.161 17.8062 29.398 17.234 29.3981 16.6374C29.3981 16.0407 29.1612 15.4685 28.7393 15.0466Z" fill="#1E88E5"/>
</svg>
